<?xml version="1.0" standalone="no"?>
<!DOCTYPE svg PUBLIC "-//W3C//DTD SVG 20010904//EN"
 "http://www.w3.org/TR/2001/REC-SVG-20010904/DTD/svg10.dtd">
<svg version="1.0" xmlns="http://www.w3.org/2000/svg"
 width="800.000000pt" height="800.000000pt" viewBox="0 0 800.000000 800.000000"
 preserveAspectRatio="xMidYMid meet">

<g transform="translate(0.000000,800.000000) scale(0.100000,-0.100000)"
fill="#000000" stroke="none">
<path d="M1808 7314 c-94 -17 -189 -52 -288 -106 -247 -135 -420 -362 -493
-648 l-22 -85 0 -2475 0 -2475 22 -85 c101 -395 390 -673 785 -754 68 -14 240
-16 1497 -16 1398 0 1421 0 1474 20 238 89 291 403 94 564 -94 77 44 70 -1537
76 l-1415 5 -67 33 c-73 36 -119 82 -158 159 l-25 48 -3 2405 c-2 2670 -8
2459 66 2555 50 66 125 110 210 124 46 8 325 11 892 9 l825 -3 6 -585 c6 -631
4 -609 62 -765 109 -296 361 -524 682 -617 l80 -23 800 0 800 0 51 27 c67 35
120 91 153 158 22 47 26 68 26 145 -1 73 -5 99 -24 140 -19 40 -222 248 -1065
1091 -672 672 -1052 1045 -1071 1051 -131 45 -77 43 -1211 42 -865 -1 -1084
-3 -1146 -15z m2962 -1555 l423 -430 -299 3 -299 3 -60 28 c-78 36 -137 95
-172 171 l-28 61 -3 298 c-2 183 0 297 6 297 5 0 200 -194 432 -431z"/>
<path d="M5549 3977 c-118 -50 -183 -128 -208 -249 -13 -60 -9 -102 16 -183
14 -45 42 -77 261 -297 l246 -248 -941 0 c-646 0 -959 -3 -995 -11 -70 -14
-127 -48 -177 -105 -59 -67 -84 -141 -79 -234 6 -127 71 -225 186 -282 l67
-33 967 -3 968 -3 -235 -232 c-250 -247 -275 -280 -290 -388 -7 -51 9 -147 32
-192 21 -41 82 -106 126 -134 55 -35 148 -56 210 -48 123 16 118 12 703 598
502 502 543 546 562 597 41 112 38 197 -10 295 -13 25 -214 235 -556 577 -481
483 -541 540 -596 564 -86 39 -180 43 -257 11z"/>
</g>
</svg>
