<?xml version="1.0" standalone="no"?>
<!DOCTYPE svg PUBLIC "-//W3C//DTD SVG 20010904//EN"
 "http://www.w3.org/TR/2001/REC-SVG-20010904/DTD/svg10.dtd">
<svg version="1.0" xmlns="http://www.w3.org/2000/svg"
 width="800.000000pt" height="800.000000pt" viewBox="0 0 800.000000 800.000000"
 preserveAspectRatio="xMidYMid meet">

<g transform="translate(0.000000,800.000000) scale(0.100000,-0.100000)"
fill="#000000" stroke="none">
<path d="M1500 4000 l0 -3250 2000 0 2000 0 0 250 0 250 -1750 0 -1750 0 0
2750 0 2750 1250 0 1250 0 0 -750 0 -750 750 0 750 0 0 -250 0 -250 250 0 250
0 0 423 0 422 -827 828 -828 827 -1672 0 -1673 0 0 -3250z m3825 2070 l320
-320 -323 0 -322 0 0 320 c0 176 1 320 3 320 1 0 146 -144 322 -320z"/>
<path d="M2500 4500 l0 -250 1500 0 1500 0 0 250 0 250 -1500 0 -1500 0 0
-250z"/>
<path d="M6750 4000 l0 -250 -27 -6 c-188 -41 -322 -114 -459 -249 -193 -191
-274 -399 -261 -665 15 -291 148 -533 377 -685 164 -109 268 -135 585 -144
260 -8 286 -13 369 -70 87 -60 151 -169 162 -278 17 -163 -98 -331 -265 -383
-59 -19 -91 -20 -522 -20 l-459 0 0 -250 0 -250 250 0 250 0 0 -250 0 -250
250 0 250 0 0 250 0 250 28 6 c344 79 589 302 689 631 36 120 38 321 5 456
-79 318 -315 554 -632 633 -46 11 -139 18 -311 22 l-245 7 -68 34 c-79 41
-143 106 -183 189 -23 49 -27 70 -28 147 0 77 4 98 27 148 35 73 116 155 193
193 l60 29 483 3 482 3 0 249 0 250 -250 0 -250 0 0 250 0 250 -250 0 -250 0
0 -250z"/>
<path d="M2500 3250 l0 -250 875 0 875 0 0 250 0 250 -875 0 -875 0 0 -250z"/>
<path d="M4750 3250 l0 -250 375 0 375 0 0 250 0 250 -375 0 -375 0 0 -250z"/>
<path d="M2500 2250 l0 -250 875 0 875 0 0 250 0 250 -875 0 -875 0 0 -250z"/>
<path d="M4750 2250 l0 -250 375 0 375 0 0 250 0 250 -375 0 -375 0 0 -250z"/>
</g>
</svg>
