<?xml version="1.0" standalone="no"?>
<!DOCTYPE svg PUBLIC "-//W3C//DTD SVG 20010904//EN"
 "http://www.w3.org/TR/2001/REC-SVG-20010904/DTD/svg10.dtd">
<svg version="1.0" xmlns="http://www.w3.org/2000/svg"
 width="800.000000pt" height="800.000000pt" viewBox="0 0 800.000000 800.000000"
 preserveAspectRatio="xMidYMid meet">

<g transform="translate(0.000000,800.000000) scale(0.100000,-0.100000)"
fill="#000000" stroke="none">
<path d="M1220 7659 c-158 -20 -315 -78 -447 -166 -239 -158 -402 -434 -433
-734 -13 -129 -13 -1392 0 -1473 19 -115 83 -201 188 -253 80 -39 191 -40 273
-2 72 34 134 96 168 168 l26 56 5 745 5 745 26 56 c37 79 88 131 161 165 l63
29 745 5 745 5 56 26 c72 34 134 96 168 168 21 46 26 70 26 136 -1 97 -29 168
-95 233 -54 54 -99 77 -175 91 -70 13 -1404 13 -1505 0z"/>
<path d="M5260 7656 c-72 -16 -107 -35 -160 -88 -66 -65 -94 -136 -95 -233 0
-66 5 -90 26 -136 34 -72 96 -134 168 -168 l56 -26 745 -5 745 -5 66 -31 c73
-35 124 -88 161 -170 l23 -49 5 -745 5 -745 26 -56 c34 -72 96 -134 168 -168
82 -38 193 -37 273 2 105 52 169 138 188 253 13 81 13 1344 0 1473 -25 243
-131 463 -299 623 -165 158 -358 249 -586 277 -131 16 -1441 14 -1515 -3z"/>
<path d="M1905 6316 c-95 -30 -162 -88 -204 -176 l-26 -55 0 -755 0 -755 25
-48 c39 -77 85 -123 158 -159 l67 -33 740 0 740 0 61 28 c76 35 135 94 171
172 l28 60 0 730 c0 560 -3 740 -13 772 -29 96 -131 195 -228 221 -65 18
-1463 16 -1519 -2z m1095 -981 l0 -335 -335 0 -335 0 0 335 0 335 335 0 335 0
0 -335z"/>
<path d="M4570 6318 c-94 -29 -194 -129 -222 -221 -10 -32 -13 -212 -13 -772
l0 -730 28 -60 c36 -78 95 -137 171 -172 l61 -28 740 0 740 0 67 33 c73 36
119 82 158 159 l25 48 3 742 c2 740 2 741 -19 799 -28 74 -102 154 -172 185
l-52 24 -740 2 c-502 1 -751 -2 -775 -9z m1098 -985 l2 -333 -335 0 -335 0 0
335 0 335 333 -2 332 -3 3 -332z"/>
<path d="M1928 3656 c-75 -16 -144 -60 -190 -121 -70 -92 -68 -66 -68 -879 l0
-731 29 -60 c35 -75 90 -130 161 -164 l55 -26 755 0 755 0 49 25 c61 31 128
95 154 147 11 21 25 65 31 98 15 81 15 1359 0 1440 -22 118 -86 201 -194 252
l-60 28 -710 2 c-534 1 -724 -1 -767 -11z m1072 -991 l0 -335 -335 0 -335 0 0
335 0 335 335 0 335 0 0 -335z"/>
<path d="M4601 3659 c-101 -20 -192 -93 -238 -193 l-28 -61 0 -240 0 -240 33
-68 c58 -117 169 -187 298 -187 160 0 292 109 325 267 l13 61 45 6 c109 15
221 106 261 214 18 45 21 72 18 132 -9 162 -114 280 -272 309 -69 13 -391 13
-455 0z"/>
<path d="M5928 3656 c-75 -16 -144 -60 -190 -121 -68 -89 -68 -88 -68 -677 l0
-528 -25 0 c-84 0 -197 -65 -252 -144 -97 -141 -68 -336 65 -442 92 -71 114
-75 389 -72 233 3 239 4 293 29 66 32 123 86 158 154 l27 50 3 730 c2 507 0
745 -8 780 -37 168 -218 279 -392 241z"/>
<path d="M587 2990 c-128 -33 -221 -134 -247 -269 -14 -72 -13 -1346 0 -1480
50 -483 410 -845 896 -901 67 -8 325 -10 804 -8 l705 3 57 28 c72 36 134 98
167 167 35 75 36 192 3 264 -37 82 -88 135 -161 170 l-66 31 -745 5 -745 5
-56 26 c-72 34 -134 96 -168 168 l-26 56 -5 745 -5 745 -23 49 c-37 80 -88
135 -157 168 -69 32 -165 44 -228 28z"/>
<path d="M7257 2990 c-103 -26 -182 -93 -229 -196 l-23 -49 -5 -745 -5 -745
-26 -56 c-34 -72 -96 -134 -168 -168 l-56 -26 -745 -5 -745 -5 -63 -29 c-73
-34 -124 -86 -161 -165 -37 -79 -37 -192 0 -271 33 -69 95 -131 167 -167 l57
-28 705 -3 c479 -2 737 0 804 8 486 56 846 418 896 901 13 129 13 1392 0 1473
-26 159 -145 270 -302 281 -34 2 -80 0 -101 -5z"/>
<path d="M4570 2317 c-57 -17 -141 -79 -177 -131 -97 -141 -69 -336 65 -441
69 -55 126 -75 208 -75 263 0 423 295 279 512 -36 53 -118 115 -177 133 -58
17 -146 18 -198 2z"/>
</g>
</svg>
